HIERARCHY
ROOT Hips
{
  OFFSET -1.00283 91.6471 -3.20329
  CHANNELS 6 Xposition Yposition Zposition Zrotation Xrotation Yrotation
  JOINT LeftHip
  {
    OFFSET 7.742 0 0
    CHANNELS 6 Xposition Yposition Zposition Zrotation Xrotation Yrotation
    JOINT LeftKnee
    {
      OFFSET 0 -41.6894 0
      CHANNELS 6 Xposition Yposition Zposition Zrotation Xrotation Yrotation
      JOINT LeftAnkle
      {
        OFFSET 0 -40.5157 0
        CHANNELS 6 Xposition Yposition Zposition Zrotation Xrotation Yrotation
        End Site
        {
          OFFSET 0 -7.04228 0
        }
      }
    }
  }
  JOINT RightHip
  {
    OFFSET -7.742 0 0
    CHANNELS 6 Xposition Yposition Zposition Zrotation Xrotation Yrotation
    JOINT RightKnee
    {
      OFFSET 0 -41.6894 0
      CHANNELS 6 Xposition Yposition Zposition Zrotation Xrotation Yrotation
      JOINT RightAnkle
      {
        OFFSET 0 -40.5157 0
        CHANNELS 6 Xposition Yposition Zposition Zrotation Xrotation Yrotation
        End Site
        {
          OFFSET 0 -7.04228 0
        }
      }
    }
  }
  JOINT Chest
  {
    OFFSET 0 12.9605 0
    CHANNELS 6 Xposition Yposition Zposition Zrotation Xrotation Yrotation
    JOINT Chest2
    {
      OFFSET 0 14.8294 0
      CHANNELS 6 Xposition Yposition Zposition Zrotation Xrotation Yrotation
      JOINT LeftCollar
      {
        OFFSET 2.39257 9.45743 3.97257
        CHANNELS 6 Xposition Yposition Zposition Zrotation Xrotation Yrotation
        JOINT LeftShoulder
        {
          OFFSET 13.114 0 0
          CHANNELS 6 Xposition Yposition Zposition Zrotation Xrotation Yrotation
          JOINT LeftElbow
          {
            OFFSET 0 -27.2663 0
            CHANNELS 6 Xposition Yposition Zposition Zrotation Xrotation Yrotation
            JOINT LeftWrist
            {
              OFFSET 0 -22.1651 0
              CHANNELS 6 Xposition Yposition Zposition Zrotation Xrotation Yrotation
              End Site
              {
                OFFSET 0 -16.6351 0
              }
            }
          }
        }
      }
      JOINT RightCollar
      {
        OFFSET -2.39257 9.45743 3.97257
        CHANNELS 6 Xposition Yposition Zposition Zrotation Xrotation Yrotation
        JOINT RightShoulder
        {
          OFFSET -13.6783 0 0
          CHANNELS 6 Xposition Yposition Zposition Zrotation Xrotation Yrotation
          JOINT RightElbow
          {
            OFFSET 0 -25.0091 0
            CHANNELS 6 Xposition Yposition Zposition Zrotation Xrotation Yrotation
            JOINT RightWrist
            {
              OFFSET 0 -22.1651 0
              CHANNELS 6 Xposition Yposition Zposition Zrotation Xrotation Yrotation
              End Site
              {
                OFFSET 0 -16.116 0
              }
            }
          }
        }
      }
      JOINT Neck
      {
        OFFSET 0 9.14143 0
        CHANNELS 6 Xposition Yposition Zposition Zrotation Xrotation Yrotation
        JOINT Head
        {
          OFFSET 0 11.7146 0
          CHANNELS 6 Xposition Yposition Zposition Zrotation Xrotation Yrotation
          End Site
          {
            OFFSET 0 9.34459 0
          }
        }
      }
    }
  }
}
MOTION
Frames:	12
Frame Time:	0.00833333
1.9275 105.208 -60.9195 -8.62319 -1.16552 8.65911 7.742 1.6038e-014 8.01898e-015 7.04783 7.71321 1.97343 -4.00949e-015 -41.6894 0 -1.80702 6.87365 3.08391 -4.00949e-015 -40.5157 1.6038e-014 -0.717976 14.5198 -2.90383 -7.742 -1.6038e-014 8.01898e-015 8.91184 -56.5225 11.912 -1.00237e-015 -41.6894 8.01898e-015 44.2504 75.1058 -60.0627 0 -40.5157 8.01898e-015 3.77355 -11.5822 5.00849 0 12.9605 8.01898e-015 -8.97382 4.58419 -9.58348 -4.00949e-015 14.8294 0 22.1666 6.91032 -14.9921 2.39257 9.45743 3.97257 14.1343 -1.79937 -10.7289 13.114 3.20759e-014 0 9.24856 -34.4162 13.2542 8.01898e-015 -27.2663 0 -23.187 -74.5765 -44.9203 -1.6038e-014 -22.1651 0 22.2096 -12.3266 2.7796 -2.39257 9.45743 3.97257 -23.2377 -0.874113 3.21317 -13.6783 4.81139e-014 1.6038e-014 2.30437 35.822 4.58248 0 -25.0091 -3.20759e-014 -19.2117 -21.5453 -7.01469 0 -22.1651 0 -26.9021 -1.149 -0.709359 0 9.14143 -1.6038e-014 9.06505 21.1108 0.0148005 0 11.7146 1.6038e-014 -14.3029 -11.8594 6.19737 
1.85692 105.243 -59.9653 -8.62969 -1.42275 8.94933 7.742 0 8.01898e-015 7.0481 8.05623 1.60041 -2.00475e-015 -41.6894 0 -1.75877 6.77065 2.95386 0 -40.5157 0 -0.83816 13.9746 -3.20265 -7.742 -1.6038e-014 8.01898e-015 8.72336 -55.8216 12.9565 2.00475e-015 -41.6894 8.01898e-015 40.9206 72.172 -56.5759 0 -40.5157 8.01898e-015 3.68022 -11.7583 4.91088 0 12.9605 8.01898e-015 -9.21043 4.63156 -9.71206 -4.00949e-015 14.8294 0 22.4424 7.17515 -15.2386 2.39257 9.45743 3.97257 14.1917 -1.86773 -11.0882 13.114 4.81139e-014 1.6038e-014 9.88381 -35.1764 13.4547 0 -27.2663 8.01898e-015 -24.4799 -75.0706 -46.1178 0 -22.1651 -1.6038e-014 22.6568 -12.3204 2.83568 -2.39257 9.45743 3.97257 -23.1948 -0.831785 3.05413 -13.6783 4.81139e-014 0 2.181 35.9924 4.39139 8.01898e-015 -25.0091 -1.6038e-014 -18.9349 -20.4814 -7.39166 -1.6038e-014 -22.1651 0 -27.0076 -0.784583 -0.624725 2.00475e-015 9.14143 -1.6038e-014 9.57978 20.8516 -0.17907 2.00475e-015 11.7146 0 -14.7168 -11.4815 6.31984 
1.78366 105.211 -59.0064 -8.62745 -1.66223 9.23749 7.742 1.6038e-014 0 7.03585 8.37462 1.14051 2.00475e-015 -41.6894 -8.01898e-015 -1.71659 6.64412 2.87376 -4.00949e-015 -40.5157 0 -0.898046 13.5842 -3.29652 -7.742 1.6038e-014 0 8.51743 -55.0645 13.7604 4.00949e-015 -41.6894 -8.01898e-015 37.8654 69.2869 -53.3972 -1.00237e-015 -40.5157 0 3.50683 -11.8152 4.65306 0 12.9605 0 -9.45622 4.66564 -9.83636 -4.00949e-015 14.8294 0 22.7183 7.41378 -15.4752 2.39257 9.45743 3.97257 14.2479 -1.93363 -11.4325 13.114 -1.6038e-014 0 10.4652 -35.8625 13.6289 0 -27.2663 4.00949e-015 -25.7475 -75.5287 -47.2594 1.6038e-014 -22.1651 0 22.9274 -12.3236 2.87102 -2.39257 9.45743 3.97257 -23.1822 -0.786326 2.87699 -13.6783 4.81139e-014 1.6038e-014 2.1189 36.1415 4.16944 8.01898e-015 -25.0091 0 -18.681 -19.4833 -7.90464 1.6038e-014 -22.1651 0 -27.1713 -0.412862 -0.537905 0 9.14143 -1.6038e-014 9.99424 20.663 -0.322713 2.00475e-015 11.7146 0 -15.022 -11.1576 6.43226 
1.70696 105.114 -58.0443 -8.61299 -1.87604 9.52166 7.742 0 0 6.99975 8.65932 0.523697 0 -41.6894 8.01898e-015 -1.68039 6.4769 2.85493 -4.00949e-015 -40.5157 0 -0.86555 13.4045 -3.10002 -7.742 0 0 8.33057 -54.2537 14.3178 -8.01898e-015 -41.6894 -1.6038e-014 34.8306 66.4337 -50.2575 0 -40.5157 0 3.22702 -11.7978 4.16179 0 12.9605 0 -9.72312 4.68233 -9.95786 8.01898e-015 14.8294 0 23.0057 7.61943 -15.7042 2.39257 9.45743 3.97257 14.3055 -1.99791 -11.7641 13.114 0 0 10.9786 -36.4553 13.7836 0 -27.2663 -4.00949e-015 -26.9865 -75.9549 -48.3199 1.6038e-014 -22.1651 0 22.9689 -12.3501 2.88158 -2.39257 9.45743 3.97257 -23.2161 -0.738146 2.68023 -13.6783 4.81139e-014 -1.6038e-014 2.1244 36.2572 3.93551 8.01898e-015 -25.0091 0 -18.4446 -18.5329 -8.54855 0 -22.1651 0 -27.4224 -0.00619238 -0.442309 -2.00475e-015 9.14143 0 10.2634 20.5711 -0.385221 2.00475e-015 11.7146 -1.6038e-014 -15.1666 -10.901 6.53923 
1.62739 104.952 -57.0751 -8.58295 -2.0802 9.79858 7.742 0 0 6.94611 8.92929 -0.256895 -2.00475e-015 -41.6894 -8.01898e-015 -1.6455 6.26722 2.89978 -2.00475e-015 -40.5157 1.6038e-014 -0.773167 13.3743 -2.71705 -7.742 -1.6038e-014 0 8.14711 -53.3651 14.6871 -2.00475e-015 -41.6894 0 31.9663 63.5455 -47.2807 2.00475e-015 -40.5157 0 2.86337 -11.7673 3.49171 -2.00475e-015 12.9605 8.01898e-015 -10.0124 4.6858 -10.0753 -8.01898e-015 14.8294 8.01898e-015 23.2977 7.80968 -15.9263 2.39257 9.45743 3.97257 14.362 -2.06027 -12.0824 13.114 1.6038e-014 -1.6038e-014 11.4316 -36.9665 13.9168 8.01898e-015 -27.2663 -8.01898e-015 -28.1374 -76.3403 -49.2188 0 -22.1651 0 22.863 -12.3976 2.87735 -2.39257 9.45743 3.97257 -23.2764 -0.688482 2.4728 -13.6783 1.6038e-014 0 2.17672 36.3336 3.70678 0 -25.0091 0 -18.1989 -17.6103 -9.33287 0 -22.1651 1.6038e-014 -27.734 0.430085 -0.339062 0 9.14143 0 10.4217 20.5387 -0.385876 0 11.7146 0 -15.1838 -10.6771 6.64246 
1.5462 104.721 -56.0986 -8.5487 -2.28063 10.0749 7.742 0 0 6.89921 9.18888 -1.03921 -2.00475e-015 -41.6894 0 -1.61422 6.05517 2.98085 0 -40.5157 0 -0.657658 13.4129 -2.26409 -7.742 0 0 7.94515 -52.4241 14.883 2.00475e-015 -41.6894 0 29.3541 60.6373 -44.5673 0 -40.5157 0 2.46645 -11.5739 2.7682 2.00475e-015 12.9605 0 -10.2966 4.68218 -10.1863 -8.01898e-015 14.8294 0 23.5722 7.987 -16.135 2.39257 9.45743 3.97257 14.4141 -2.11916 -12.3825 13.114 3.20759e-014 0 11.8426 -37.4317 14.0081 0 -27.2663 -8.01898e-015 -29.1902 -76.6892 -50.0105 0 -22.1651 0 22.6665 -12.4368 2.8599 -2.39257 9.45743 3.97257 -23.3413 -0.635465 2.25144 -13.6783 3.20759e-014 0 2.27669 36.4017 3.42815 8.01898e-015 -25.0091 1.6038e-014 -17.9559 -16.7697 -10.2553 -1.6038e-014 -22.1651 -1.6038e-014 -28.0608 0.83776 -0.242103 -2.00475e-015 9.14143 0 10.5477 20.5351 -0.38089 0 11.7146 0 -15.1634 -10.482 6.73041 
1.46465 104.418 -55.1143 -8.5214 -2.48321 10.3574 7.742 0 0 6.88054 9.44376 -1.66077 -2.00475e-015 -41.6894 0 -1.5894 5.88079 3.07076 2.00475e-015 -40.5157 -1.6038e-014 -0.554234 13.4404 -1.85798 -7.742 1.6038e-014 0 7.70371 -51.4552 14.9203 -2.00475e-015 -41.6894 -8.01898e-015 27.029 57.738 -42.17 0 -40.5157 0 2.09338 -11.0687 2.11812 2.00475e-015 12.9605 0 -10.5482 4.67758 -10.2884 8.01898e-015 14.8294 0 23.8068 8.15391 -16.3236 2.39257 9.45743 3.97257 14.4583 -2.17308 -12.6592 13.114 3.20759e-014 8.01898e-015 12.2296 -37.8864 14.0368 -8.01898e-015 -27.2663 0 -30.1437 -77.0048 -50.7582 -1.6038e-014 -22.1651 0 22.4363 -12.4379 2.83077 -2.39257 9.45743 3.97257 -23.3888 -0.577226 2.01288 -13.6783 0 0 2.42617 36.4917 3.04388 8.01898e-015 -25.0091 0 -17.7323 -16.0645 -11.3143 0 -22.1651 0 -28.3565 1.15862 -0.165376 0 9.14143 1.6038e-014 10.7199 20.5299 -0.426421 0 11.7146 0 -15.195 -10.3117 6.79153 
1.38078 104.035 -54.1244 -8.50561 -2.68158 10.6456 7.742 0 0 6.89047 9.66465 -2.09894 0 -41.6894 0 -1.55489 5.73672 3.07071 -2.00475e-015 -40.5157 1.6038e-014 -0.458818 13.5923 -1.47696 -7.742 0 8.01898e-015 7.43861 -50.47 14.7674 0 -41.6894 0 24.8265 54.8526 -39.8924 0 -40.5157 0 1.73915 -10.1369 1.52457 -2.00475e-015 12.9605 0 -10.7607 4.66332 -10.3778 8.01898e-015 14.8294 -8.01898e-015 23.9963 8.3134 -16.4871 2.39257 9.45743 3.97257 14.4994 -2.22471 -12.9234 13.114 0 0 12.5849 -38.3254 14.0012 0 -27.2663 1.6038e-014 -31.0032 -77.2919 -51.4758 1.6038e-014 -22.1651 0 22.1642 -12.3789 2.78451 -2.39257 9.45743 3.97257 -23.4152 -0.509183 1.74008 -13.6783 3.20759e-014 1.6038e-014 2.63215 36.6008 2.52517 0 -25.0091 0 -17.5482 -15.5012 -12.5691 1.6038e-014 -22.1651 -1.6038e-014 -28.6018 1.37559 -0.112396 -2.00475e-015 9.14143 0 10.9727 20.5028 -0.547148 8.01898e-015 11.7146 0 -15.3153 -10.1472 6.82195 
1.29468 103.575 -53.1283 -8.49488 -2.87522 10.9368 7.742 -1.6038e-014 0 6.91602 9.85957 -2.433 0 -41.6894 0 -1.51523 5.6076 3.02583 -2.00475e-015 -40.5157 0 -0.360634 13.8589 -1.07555 -7.742 0 0 7.17883 -49.452 14.4486 2.00475e-015 -41.6894 0 22.7158 51.9461 -37.6834 0 -40.5157 -4.00949e-015 1.39704 -8.88285 0.940207 0 12.9605 -8.01898e-015 -10.9485 4.63958 -10.4569 8.01898e-015 14.8294 0 24.152 8.46352 -16.63 2.39257 9.45743 3.97257 14.5376 -2.27387 -13.1737 13.114 3.20759e-014 0 12.9 -38.735 13.9089 0 -27.2663 1.20285e-014 -31.7485 -77.5489 -52.1116 -1.6038e-014 -22.1651 0 21.8279 -12.2801 2.7223 -2.39257 9.45743 3.97257 -23.4312 -0.433684 1.44018 -13.6783 1.6038e-014 -8.01898e-015 2.89293 36.7144 1.9055 -1.6038e-014 -25.0091 1.6038e-014 -17.393 -15.0493 -14.0007 0 -22.1651 1.6038e-014 -28.8227 1.52024 -0.075792 0 9.14143 -1.6038e-014 11.2596 20.4738 -0.709843 0 11.7146 -1.6038e-014 -15.4717 -9.99655 6.82815 
1.21071 103.056 -52.1217 -8.48343 -3.07871 11.2339 7.742 0 0 6.95791 10.091 -2.65314 -2.00475e-015 -41.6894 0 -1.50351 5.52152 3.12452 -2.00475e-015 -40.5157 0 -0.275905 13.9432 -0.73705 -7.742 0 0 6.91627 -48.3839 14.0575 -2.00475e-015 -41.6894 0 20.8538 49.0177 -35.7437 0 -40.5157 0 1.1129 -7.48802 0.444182 2.00475e-015 12.9605 0 -11.1154 4.62582 -10.5322 0 14.8294 8.01898e-015 24.276 8.59941 -16.7602 2.39257 9.45743 3.97257 14.5625 -2.31481 -13.3868 13.114 1.6038e-014 0 13.1916 -39.1378 13.7532 0 -27.2663 8.01898e-015 -32.3453 -77.7689 -52.6343 0 -22.1651 0 21.4627 -12.1764 2.65559 -2.39257 9.45743 3.97257 -23.4369 -0.35927 1.14613 -13.6783 3.20759e-014 -8.01898e-015 3.19872 36.8456 1.22168 0 -25.0091 0 -17.2457 -14.707 -15.4922 1.6038e-014 -22.1651 -1.6038e-014 -29.0412 1.60728 -0.05319 -2.00475e-015 9.14143 0 11.5382 20.4737 -0.883899 -4.00949e-015 11.7146 0 -15.6199 -9.89649 6.81406 
1.13322 102.492 -51.1003 -8.46513 -3.30652 11.5401 7.742 -1.6038e-014 0 7.01749 10.4214 -2.74972 0 -41.6894 -1.6038e-014 -1.5523 5.5064 3.55515 0 -40.5157 0 -0.214041 13.5483 -0.546399 -7.742 -1.6038e-014 0 6.63386 -47.2499 13.6807 2.00475e-015 -41.6894 0 19.3364 46.092 -34.2267 0 -40.5157 4.00949e-015 0.917567 -6.13437 0.113022 0 12.9605 0 -11.2652 4.64146 -10.6106 0 14.8294 0 24.3708 8.71615 -16.8854 2.39257 9.45743 3.97257 14.5641 -2.34179 -13.5398 13.114 1.6038e-014 0 13.4757 -39.5564 13.5276 -8.01898e-015 -27.2663 4.00949e-015 -32.757 -77.9448 -53.0109 0 -22.1651 0 21.1039 -12.1026 2.59582 -2.39257 9.45743 3.97257 -23.4332 -0.294494 0.890893 -13.6783 0 -8.01898e-015 3.54026 37.0081 0.510233 8.01898e-015 -25.0091 0 -17.0892 -14.4745 -16.9277 0 -22.1651 1.6038e-014 -29.2793 1.65146 -0.0422144 0 9.14143 0 11.7666 20.5328 -1.03886 8.01898e-015 11.7146 0 -15.7159 -9.88368 6.78361 
1.06253 101.891 -50.067 -8.45109 -3.5491 11.862 7.742 1.6038e-014 -8.01898e-015 7.10136 10.9054 -2.69491 -2.00475e-015 -41.6894 0 -1.70503 5.38326 4.63354 -2.00475e-015 -40.5157 0 -0.186795 12.647 -0.637506 -7.742 1.6038e-014 -8.01898e-015 6.33192 -46.0069 13.3092 -2.00475e-015 -41.6894 -8.01898e-015 18.0145 43.0835 -33.0516 2.50593e-016 -40.5157 -2.00475e-015 0.818854 -4.765 0.000374825 -2.00475e-015 12.9605 0 -11.3836 4.68278 -10.6999 8.01898e-015 14.8294 0 24.43 8.80096 -17.0095 2.39257 9.45743 3.97257 14.5366 -2.35213 -13.6222 13.114 0 8.01898e-015 13.7668 -39.9943 13.227 8.01898e-015 -27.2663 0 -32.9859 -78.0792 -53.2405 -1.6038e-014 -22.1651 0 20.7437 -12.0625 2.54301 -2.39257 9.45743 3.97257 -23.4335 -0.238472 0.669516 -13.6783 3.20759e-014 0 3.93209 37.2121 -0.238784 -8.01898e-015 -25.0091 1.6038e-014 -16.9283 -14.3877 -18.3618 1.6038e-014 -22.1651 0 -29.6066 1.64562 -0.0452496 0 9.14143 0 11.9437 20.6797 -1.17703 -4.00949e-015 11.7146 0 -15.7577 -9.97272 6.73434 
